<?xml version="1.0" standalone="no"?>
<!DOCTYPE svg PUBLIC "-//W3C//DTD SVG 20010904//EN"
 "http://www.w3.org/TR/2001/REC-SVG-20010904/DTD/svg10.dtd">
<svg version="1.0" xmlns="http://www.w3.org/2000/svg"
 width="225.000000pt" height="225.000000pt" viewBox="0 0 225.000000 225.000000"
 preserveAspectRatio="xMidYMid meet">
<metadata>
Created by potrace 1.16, written by Peter Selinger 2001-2019
</metadata>
<g transform="translate(0.000000,225.000000) scale(0.100000,-0.100000)"
fill="#000000" stroke="none">
<path d="M960 2227 c-36 -12 -87 -35 -115 -51 -61 -35 -717 -689 -763 -760
-56 -87 -75 -150 -80 -268 -5 -129 15 -210 76 -303 24 -36 180 -199 393 -411
303 -300 363 -355 417 -382 86 -42 159 -55 272 -49 104 5 175 27 250 77 61 40
724 704 761 762 54 83 71 143 77 260 5 128 -15 210 -77 303 -51 79 -719 743
-784 780 -120 69 -298 86 -427 42z m314 -770 c77 -35 140 -98 179 -176 29 -59
32 -74 32 -156 0 -82 -3 -97 -32 -156 -39 -79 -102 -140 -181 -177 -48 -23
-71 -27 -147 -27 -76 0 -99 4 -147 27 -79 37 -142 98 -181 177 -29 59 -32 74
-32 156 0 76 4 99 27 146 47 102 133 176 237 206 68 19 179 10 245 -20z"/>
</g>
</svg>
