<?xml version="1.0" standalone="no"?>
<!DOCTYPE svg PUBLIC "-//W3C//DTD SVG 20010904//EN"
 "http://www.w3.org/TR/2001/REC-SVG-20010904/DTD/svg10.dtd">
<svg version="1.0" xmlns="http://www.w3.org/2000/svg"
 width="541.000000pt" height="614.000000pt" viewBox="0 0 541.000000 614.000000"
 preserveAspectRatio="xMidYMid meet">
<metadata>
Created by potrace 1.16, written by Peter Selinger 2001-2019
</metadata>
<g transform="translate(0.000000,614.000000) scale(0.100000,-0.100000)"
fill="#000000" stroke="none">
<path d="M60 5725 l0 -355 2645 0 2645 0 0 355 0 355 -2645 0 -2645 0 0 -355z"/>
<path d="M60 4370 l0 -360 2645 0 2645 0 0 360 0 360 -2645 0 -2645 0 0 -360z"/>
<path d="M60 1724 c0 -1535 1 -1656 17 -1650 9 4 601 333 1316 733 715 399
1305 726 1311 726 6 0 600 -329 1320 -732 719 -402 1312 -731 1317 -731 5 0 9
687 9 1655 l0 1655 -2645 0 -2645 0 0 -1656z"/>
</g>
</svg>
